<svg width="259" height="246" viewBox="0 0 259 246" fill="none" xmlns="http://www.w3.org/2000/svg">
<circle cx="142.931" cy="129.271" r="75.2412" stroke="white"/>
<path d="M235 125.837L235 124.477L246.2 124.477L246.2 125.853L240.456 130.061L246.2 134.093L246.2 135.389L235 135.389L235 134.029L244.056 134.029L238.488 130.061L238.488 129.853L244.008 125.837L235 125.837Z" fill="white"/>
<path d="M233.31 147.185L234.324 140.785L245.386 142.537L244.397 148.779L243.133 148.579L243.909 143.68L240.338 143.114L239.637 147.539L238.372 147.339L239.073 142.914L235.375 142.328L234.574 147.385L233.31 147.185Z" fill="white"/>
<path d="M229.898 152.82L230.294 151.603L233.489 152.641L233.119 153.782C233.436 154.255 234.151 154.869 235.263 155.623C236.372 156.387 237.902 157.148 239.854 157.905L241.95 158.704L239.913 164.973L230.478 161.908L230.009 163.354L226.813 162.315L227.209 161.098L229.187 161.741L231.877 153.463L229.898 152.82ZM240.327 159.556L238.47 158.801C236.93 158.189 235.621 157.523 234.543 156.802C233.529 156.125 232.9 155.595 232.654 155.213L230.899 160.615L239.116 163.285L240.327 159.556Z" fill="white"/>
<path d="M231.143 178.676L226.247 168.549L226.792 167.48L236.771 172.565L236.154 173.776L228.17 169.709L233.066 179.835L232.522 180.905L222.542 175.82L223.16 174.608L231.143 178.676Z" fill="white"/>
<path d="M214.424 187.501L219.691 180.252L228.752 186.835L227.952 187.935L219.927 182.105L216.4 186.959L224.425 192.789L223.626 193.89L215.601 188.059L214.707 189.289L211.989 187.314L212.741 186.278L214.424 187.501Z" fill="white"/>
<path d="M211.56 203.512L210.032 192.368L210.881 191.52L218.801 199.439L217.839 200.401L211.503 194.065L213.031 205.209L212.182 206.058L204.262 198.138L205.224 197.177L211.56 203.512Z" fill="white"/>
<path d="M192.926 206.743L194.026 205.944L197.007 210.047L201.991 206.426L199.009 202.323L200.11 201.523L206.693 210.584L205.593 211.384L202.743 207.462L197.76 211.082L200.609 215.005L199.509 215.804L192.926 206.743Z" fill="white"/>
<path d="M181.347 215.39L180.398 214.724C180.556 214.212 180.869 213.712 181.338 213.221C181.807 212.731 182.354 212.326 182.982 212.007C184.474 211.247 185.932 211.09 187.357 211.537C188.773 212.013 189.873 213.021 190.658 214.56C191.413 216.043 191.589 217.492 191.184 218.907C190.79 220.341 189.827 221.448 188.297 222.228C187.033 222.872 185.856 223.064 184.767 222.805L184.858 221.61C185.775 221.765 186.723 221.593 187.702 221.094C188.785 220.542 189.485 219.719 189.801 218.624C190.122 217.539 189.98 216.402 189.375 215.214C188.769 214.026 187.921 213.243 186.831 212.865C185.726 212.506 184.599 212.619 183.449 213.205C182.479 213.699 181.779 214.427 181.347 215.39Z" fill="white"/>
<path d="M171.375 228.602L169.807 229.111L172.928 222.562L166.103 218.538L167.762 217.999L174.39 221.986L171.375 228.602ZM172.844 216.348L174.137 215.928L177.598 226.579L176.305 227L172.844 216.348Z" fill="white"/>
<path d="M163.867 224.828C164.121 226.429 163.802 227.862 162.912 229.126C162.021 230.39 160.759 231.152 159.126 231.41C157.504 231.667 156.076 231.348 154.844 230.453C153.601 229.559 152.847 228.279 152.584 226.615C152.327 224.992 152.649 223.548 153.55 222.282C154.454 221.038 155.712 220.287 157.324 220.032C158.936 219.777 160.369 220.095 161.623 220.988C162.855 221.883 163.603 223.163 163.867 224.828ZM162.445 225.053C162.248 223.81 161.675 222.821 160.727 222.085C159.783 221.371 158.715 221.108 157.524 221.296C156.281 221.493 155.337 222.075 154.69 223.041C154.034 224.009 153.806 225.125 154.006 226.39C154.206 227.654 154.779 228.643 155.723 229.357C156.668 230.072 157.736 230.335 158.926 230.146C160.138 229.954 161.078 229.379 161.747 228.42C162.416 227.461 162.648 226.338 162.445 225.053Z" fill="white"/>
<path d="M139.387 221.325L145.867 221.325L145.867 232.525L139.547 232.525L139.547 231.245L144.507 231.245L144.507 227.629L140.027 227.629L140.027 226.349L144.507 226.349L144.507 222.605L139.387 222.605L139.387 221.325Z" fill="white"/>
<path d="M118.204 223.912C117.703 225.454 116.769 226.586 115.401 227.308C114.034 228.03 112.564 228.136 110.992 227.625C109.429 227.117 108.302 226.185 107.611 224.827C106.909 223.467 106.818 221.985 107.339 220.382C107.847 218.82 108.789 217.679 110.167 216.96C111.538 216.262 112.999 216.165 114.551 216.669C116.104 217.173 117.236 218.107 117.948 219.472C118.639 220.829 118.725 222.309 118.204 223.912ZM116.834 223.467C117.223 222.27 117.162 221.129 116.652 220.043C116.134 218.978 115.302 218.259 114.156 217.886C112.959 217.497 111.853 217.587 110.839 218.154C109.814 218.719 109.104 219.61 108.709 220.827C108.313 222.044 108.374 223.186 108.891 224.251C109.409 225.316 110.241 226.035 111.387 226.408C112.554 226.787 113.653 226.701 114.684 226.15C115.716 225.599 116.432 224.705 116.834 223.467Z" fill="white"/>
<path d="M97.2539 220.439L100.747 222.218L100.166 223.359L91.9683 219.182L92.5494 218.042L96.0421 219.821L100.546 210.982L101.757 211.6L97.2539 220.439Z" fill="white"/>
<path d="M93.6775 204.69L94.7131 205.442L92.7381 208.161L91.7673 207.455C91.2192 207.611 90.4148 208.101 89.3541 208.926C88.2848 209.744 87.0883 210.965 85.7645 212.587L84.3572 214.333L79.0242 210.459L84.855 202.433L83.6253 201.54L85.6003 198.822L86.6358 199.574L85.4132 201.257L92.4549 206.373L93.6775 204.69ZM84.0482 212.527L85.3402 210.993C86.3983 209.718 87.4366 208.68 88.4549 207.877C89.4121 207.122 90.1106 206.687 90.5505 206.571L85.9553 203.233L80.8768 210.223L84.0482 212.527Z" fill="white"/>
<path d="M75.3367 191.846L79.9188 196.428L71.9992 204.348L67.5303 199.879L68.4354 198.974L71.9426 202.481L74.4995 199.924L71.3317 196.756L72.2368 195.851L75.4046 199.019L78.052 196.372L74.4317 192.751L75.3367 191.846Z" fill="white"/>
<path d="M66.0429 180.036L66.8423 181.137L58.8168 186.968L61.2056 190.255L63.0271 189.169C64.2241 188.458 65.2835 187.893 66.2052 187.473C67.1182 187.061 67.8724 186.783 68.4677 186.64C69.063 186.498 69.5798 186.465 70.0181 186.542C70.4502 186.611 70.7842 186.744 71.0202 186.942C71.2562 187.139 71.4654 187.409 71.648 187.751L70.5383 188.538C70.4325 188.338 70.3067 188.192 70.1609 188.1C70.0065 188.014 69.7661 187.965 69.4399 187.951C69.0925 187.927 68.6498 187.998 68.1117 188.165C66.8944 188.522 65.1334 189.419 62.8286 190.856L60.9224 192.043L56.9819 186.62L66.0429 180.036Z" fill="white"/>
<path d="M59.3086 167.892L62.2505 173.666L52.2712 178.75L49.402 173.119L50.5425 172.538L52.7943 176.957L56.0161 175.316L53.9823 171.324L55.1228 170.743L57.1566 174.735L60.4926 173.035L58.1681 168.473L59.3086 167.892Z" fill="white"/>
<path d="M53.8194 152.864L54.2396 154.158L49.4159 155.725L51.3194 161.584L56.1432 160.016L56.5634 161.31L45.9116 164.771L45.4913 163.477L50.1021 161.979L48.1985 156.121L43.5878 157.619L43.1675 156.325L53.8194 152.864Z" fill="white"/>
<path d="M42.5524 141.142L52.4658 146.456L52.6535 147.641L41.5914 149.393L41.3787 148.05L50.2284 146.649L40.3149 141.334L40.1272 140.149L51.1893 138.397L51.4021 139.74L42.5524 141.142Z" fill="white"/>
<path d="M50.891 125.712L50.891 132.192L39.691 132.192L39.691 125.872L40.971 125.872L40.971 130.832L44.587 130.832L44.587 126.352L45.867 126.352L45.867 130.832L49.611 130.832L49.611 125.712L50.891 125.712Z" fill="white"/>
<path d="M61.2146 86.9093L60.6335 88.0498L50.6542 82.9651L51.2353 81.8246L61.2146 86.9093Z" fill="white"/>
<path d="M80.7742 61.2568L79.8125 62.2185L72.798 55.204L69.9243 58.0777L71.2819 59.7068C72.172 60.7779 72.896 61.7358 73.4542 62.5805C74.0048 63.4177 74.397 64.1192 74.6308 64.6849C74.8646 65.2506 74.9778 65.7559 74.9702 66.2009C74.9702 66.6384 74.891 66.9891 74.7326 67.2531C74.5742 67.5171 74.3404 67.766 74.0312 67.9998L73.0808 67.0268C73.2618 66.891 73.3863 66.744 73.4542 66.5856C73.5145 66.4196 73.5258 66.1745 73.4881 65.8502C73.458 65.5032 73.3184 65.0771 73.0695 64.5717C72.5265 63.4253 71.3649 61.8263 69.5849 59.7747L68.1141 58.0777L72.8546 53.3372L80.7742 61.2568Z" fill="white"/>
<path d="M91.7165 52.7058L86.474 56.5146L79.8908 47.4536L85.0038 43.7388L85.7562 44.7744L81.7435 47.6898L83.8689 50.6152L87.4933 47.9819L88.2457 49.0175L84.6213 51.6507L86.8219 54.6797L90.9641 51.6702L91.7165 52.7058Z" fill="white"/>
<path d="M96.0455 38.7179L92.5528 40.4975L91.9717 39.357L100.169 35.1803L100.75 36.3208L97.2573 38.1004L101.761 46.9392L100.549 47.5567L96.0455 38.7179Z" fill="white"/>
<path d="M119.351 40.1448L118.058 40.5651L116.49 35.7413L110.632 37.6449L112.199 42.4686L110.906 42.8889L107.445 32.237L108.738 31.8168L110.236 36.4275L116.095 34.524L114.597 29.9132L115.89 29.493L119.351 40.1448Z" fill="white"/>
<path d="M131.808 37.832L130.465 38.0447L129.814 33.9359L127.744 34.2638L125.534 38.8256L124.017 39.0659L126.395 34.2345C125.7 34.0746 125.11 33.7577 124.624 33.2838C124.137 32.7994 123.837 32.1989 123.723 31.4825C123.555 30.4185 123.78 29.4865 124.398 28.6865C125.015 27.8761 126.035 27.3582 127.457 27.1329C127.499 27.1263 127.943 27.0667 128.789 26.9543C129.213 26.8981 129.635 26.8366 130.056 26.7699L131.808 37.832ZM127.386 33.0246L129.614 32.6717L128.913 28.2469C128.181 28.3304 127.678 28.3938 127.404 28.4372C126.583 28.5674 125.969 28.886 125.563 29.393C125.166 29.8878 125.023 30.4829 125.133 31.1783C125.223 31.7472 125.489 32.1965 125.93 32.5262C126.373 32.8665 126.858 33.0326 127.386 33.0246Z" fill="white"/>
<path d="M146.249 37.2158L144.889 37.2158L144.889 33.0558L142.793 33.0558L139.897 37.2158L138.361 37.2158L141.465 32.8158C140.804 32.5492 140.27 32.1438 139.865 31.5998C139.46 31.0452 139.257 30.4052 139.257 29.6798C139.257 28.6025 139.625 27.7172 140.361 27.0238C141.097 26.3198 142.185 25.9678 143.625 25.9678C143.668 25.9678 144.116 25.9785 144.969 25.9998C145.396 26.0105 145.822 26.0158 146.249 26.0158L146.249 37.2158ZM142.633 31.7758L144.889 31.7758L144.889 27.2958C144.153 27.2638 143.646 27.2478 143.369 27.2478C142.537 27.2478 141.881 27.4665 141.401 27.9038C140.932 28.3305 140.697 28.8958 140.697 29.5998C140.697 30.1758 140.889 30.6612 141.273 31.0558C141.657 31.4612 142.11 31.7012 142.633 31.7758Z" fill="white"/>
<path d="M177.364 43.6612L165.419 39.78L168.88 29.1281L170.173 29.5484L167.108 38.9829L171.14 40.2931L174.206 30.8586L175.499 31.2789L172.434 40.7134L176.466 42.0236L179.531 32.5891L180.825 33.0094L177.364 43.6612Z" fill="white"/>
<path d="M193.08 38.9303L194.549 39.6784L187.711 42.1024L189.692 49.7739L188.138 48.9822L186.27 41.476L193.08 38.9303ZM183.377 46.556L182.165 45.9386L187.25 35.9593L188.461 36.5768L183.377 46.556Z" fill="white"/>
<path d="M195.721 46.9062C196.674 45.5945 197.913 44.8065 199.436 44.5423C200.96 44.2781 202.391 44.6319 203.728 45.6037C205.057 46.5692 205.841 47.8044 206.079 49.3092C206.326 50.8203 205.954 52.2576 204.964 53.621C203.998 54.95 202.749 55.7434 201.217 56.0014C199.697 56.2421 198.277 55.8828 196.957 54.9235C195.637 53.9643 194.849 52.726 194.593 51.2086C194.355 49.7038 194.731 48.2696 195.721 46.9062ZM196.886 47.7526C196.147 48.7709 195.852 49.8752 196.002 51.0656C196.165 52.2387 196.734 53.1795 197.709 53.888C198.727 54.6278 199.807 54.8845 200.947 54.6581C202.096 54.438 203.046 53.8102 203.799 52.7746C204.551 51.7391 204.846 50.6347 204.683 49.4616C204.52 48.2885 203.951 47.3477 202.976 46.6392C201.983 45.9182 200.912 45.6603 199.76 45.8655C198.609 46.0708 197.651 46.6998 196.886 47.7526Z" fill="white"/>
<path d="M210.959 67.0998L209.997 66.1382L217.012 59.1237L214.138 56.25L212.509 57.6076C211.438 58.4976 210.48 59.2217 209.635 59.7799C208.798 60.3305 208.097 60.7227 207.531 60.9565C206.965 61.1903 206.46 61.3034 206.015 61.2959C205.578 61.2959 205.227 61.2167 204.963 61.0583C204.699 60.8999 204.45 60.6661 204.216 60.3569L205.189 59.4065C205.325 59.5875 205.472 59.712 205.63 59.7799C205.796 59.8402 206.041 59.8515 206.366 59.8138C206.713 59.7836 207.139 59.6441 207.644 59.3952C208.791 58.8521 210.39 57.6906 212.441 55.9106L214.138 54.4398L218.879 59.1802L210.959 67.0998Z" fill="white"/>
<path d="M215.054 71.9058L214.245 70.7926L226.188 68.068L226.875 69.0129L220.593 79.5299L219.737 78.352L221.635 75.1933L218.635 71.064L215.054 71.9058ZM222.36 74.0137L225.045 69.5708L219.99 70.7518L222.36 74.0137Z" fill="white"/>
<path d="M230.692 101.431L230.297 100.214L240.949 96.753L241.344 97.9703L230.692 101.431Z" fill="white"/>
<path d="M0 110.603H80.0748L93.028 94.1377L104.804 110.603H131.888L143.664 131.772L157.794 0.0532227L168.393 167.053L186.056 96.4898L196.654 131.772L209.607 108.25H252" stroke="#FF1313"/>
</svg>
