<svg width="673" height="544" viewBox="0 0 673 544" fill="none" xmlns="http://www.w3.org/2000/svg">
<path d="M128.441 454.912V160.795H354.912V474.029H128.441V454.912ZM128.441 454.912H354.912M149.029 160.795V454.912V474.029M334.324 474.029V160.795M168.147 474.029V454.912V0.500013H315.206V474.029M23.2471 85.795L129.129 85.795M151.971 26.9707V160.795L142.006 149.619H0.5V43.1484H354.912L354.822 134.813L331.582 160.795V26.9707H151.971Z" stroke="white"/>
<path d="M470.894 473.93H394.424L394.424 454.812M470.894 473.93V543.198H576.777V454.812M470.894 473.93V454.812M576.777 473.93H653.247V454.812M394.424 160.695H375.6V454.812H394.424M394.424 160.695L439.475 110.761M394.424 160.695L394.424 70.6008L439.475 110.761M394.424 160.695L394.424 454.812M470.894 90.1067H576.777M576.777 90.1067V121.283M576.777 90.1067V61.2832H470.894V131.283M653.247 160.695H672.071V454.812H653.247M653.247 160.695L608.303 110.761M653.247 160.695V454.812M470.894 121.283H576.777M576.777 121.283V131.283M439.475 110.761L462.366 85.3067V131.283M470.894 131.283H462.366L439.475 110.761M608.303 110.761L585.412 85.3067V131.283M608.303 110.761L653.354 70.452V160.695M576.777 131.283H585.412L608.303 110.761M470.894 454.812L470.894 131.283M470.894 454.812H394.424M470.894 454.812H576.777M470.894 131.283L576.777 131.283M576.777 454.812V131.283M576.777 454.812H653.247" stroke="white"/>
</svg>
