<svg width="482" height="705" viewBox="0 0 482 705" fill="none" xmlns="http://www.w3.org/2000/svg">
<path d="M351.225 110C351.225 170.751 301.976 220 241.225 220C180.474 220 131.225 170.751 131.225 110C131.225 49.2487 180.474 0 241.225 0C301.976 0 351.225 49.2487 351.225 110Z" fill="black"/>
<path d="M317.209 386.974C443.386 513.152 511.521 649.591 469.392 691.719C427.263 733.848 290.824 665.713 164.647 539.536C38.4695 413.359 -29.6653 276.92 12.4635 234.791C54.5923 192.662 191.031 260.797 317.209 386.974Z" fill="black"/>
<path d="M317.209 539.026C191.032 665.204 54.5926 733.338 12.4638 691.21C-29.665 649.081 38.4698 512.642 164.647 386.464C290.825 260.287 427.264 192.152 469.392 234.281C511.521 276.41 443.386 412.849 317.209 539.026Z" fill="black"/>
</svg>
