<svg width="198" height="97" viewBox="0 0 198 97" fill="none" xmlns="http://www.w3.org/2000/svg">
<path d="M3.23584 3.09863C5.46407 0.870383 8.88244 0.157655 13.0259 0.647461C17.1764 1.13813 22.144 2.84293 27.5972 5.57129C34.0452 8.79741 41.2086 13.4733 48.5571 19.3301C55.9029 13.4933 63.0631 8.83412 69.5083 5.61816C74.9672 2.89438 79.9393 1.19261 84.0933 0.704102C88.2401 0.216444 91.6611 0.930049 93.8901 3.15723C96.1193 5.38458 96.8333 8.80351 96.3452 12.9473C95.8562 17.0979 94.1542 22.0663 91.4282 27.5205C88.2033 33.973 83.5261 41.1413 77.6685 48.4961C82.2892 54.3155 86.1726 60.0175 89.1851 65.3408C89.9957 66.7667 90.7442 68.1656 91.4272 69.5322C94.1532 74.9865 95.8563 79.9548 96.3452 84.1055C96.8332 88.2491 96.1183 91.6672 93.8892 93.8945C91.6602 96.1215 88.2398 96.8352 84.0933 96.3477C79.9394 95.8592 74.967 94.1582 69.5083 91.4346C63.0385 88.2063 55.8484 83.5224 48.4731 77.6543C41.1123 83.5015 33.9381 88.1691 27.481 91.3877C22.0211 94.1091 17.0482 95.8081 12.894 96.2949C8.74703 96.7809 5.32629 96.0659 3.09814 93.8379C0.869882 91.6096 0.157129 88.1904 0.646973 84.0469C1.13771 79.8965 2.84262 74.9295 5.5708 69.4766C8.7975 63.0272 13.4742 55.8618 19.3325 48.5117C13.5069 41.1871 8.85444 34.0484 5.64209 27.6211C2.91616 22.1669 1.21402 17.1985 0.725098 13.0479C0.41914 10.4501 0.585103 8.13742 1.30127 6.22461C1.72845 5.0196 2.36633 3.96816 3.23584 3.09863Z" stroke="#808080"/>
<path d="M104.164 3.09863C106.392 0.870383 109.81 0.157655 113.954 0.647461C118.104 1.13813 123.072 2.84293 128.525 5.57129C134.973 8.79741 142.137 13.4733 149.485 19.3301C156.831 13.4933 163.991 8.83412 170.436 5.61816C175.895 2.89438 180.867 1.19261 185.021 0.704102C189.168 0.216444 192.589 0.930049 194.818 3.15723C197.047 5.38458 197.761 8.80351 197.273 12.9473C196.784 17.0979 195.082 22.0663 192.356 27.5205C189.131 33.973 184.454 41.1413 178.596 48.4961C183.217 54.3155 187.101 60.0175 190.113 65.3408C190.924 66.7667 191.672 68.1656 192.355 69.5322C195.081 74.9865 196.784 79.9548 197.273 84.1055C197.761 88.2491 197.046 91.6672 194.817 93.8945C192.588 96.1215 189.168 96.8352 185.021 96.3477C180.867 95.8592 175.895 94.1582 170.436 91.4346C163.966 88.2063 156.776 83.5224 149.401 77.6543C142.04 83.5015 134.866 88.1691 128.409 91.3877C122.949 94.1091 117.976 95.8081 113.822 96.2949C109.675 96.7809 106.254 96.0659 104.026 93.8379C101.798 91.6096 101.085 88.1904 101.575 84.0469C102.066 79.8965 103.771 74.9295 106.499 69.4766C109.725 63.0272 114.402 55.8618 120.26 48.5117C114.435 41.1871 109.782 34.0484 106.57 27.6211C103.844 22.1669 102.142 17.1985 101.653 13.0479C101.347 10.4501 101.513 8.13742 102.229 6.22461C102.656 5.0196 103.294 3.96816 104.164 3.09863Z" stroke="#808080"/>
<path d="M149.424 20.4316C164.923 20.4316 177.488 32.9965 177.488 48.4961C177.488 63.9959 164.923 76.5615 149.424 76.5615C133.924 76.5615 121.359 63.9958 121.359 48.4961C121.359 32.9965 133.924 20.4317 149.424 20.4316Z" stroke="white"/>
<path d="M48.4956 20.4316C63.9951 20.4316 76.5599 32.9965 76.5601 48.4961C76.5601 63.9959 63.9952 76.5615 48.4956 76.5615C32.996 76.5615 20.4312 63.9958 20.4312 48.4961C20.4313 32.9965 32.9962 20.4317 48.4956 20.4316Z" stroke="white"/>
<ellipse cx="61.3496" cy="48.4967" rx="7.14112" ry="7.1412" fill="white"/>
<ellipse cx="131.809" cy="48.4967" rx="7.14112" ry="7.1412" fill="white"/>
</svg>
