<svg width="296" height="149" viewBox="0 0 296 149" fill="none" xmlns="http://www.w3.org/2000/svg">
<path d="M3.23584 54.542C5.46407 52.3137 8.88244 51.601 13.0259 52.0908C17.1764 52.5815 22.144 54.2863 27.5972 57.0146C34.0452 60.2408 41.2086 64.9166 48.5571 70.7734C55.9029 64.9367 63.0631 60.2775 69.5083 57.0615C74.9672 54.3377 79.9393 52.636 84.0933 52.1475C88.2401 51.6598 91.6611 52.3734 93.8901 54.6006C96.1193 56.8279 96.8333 60.2469 96.3452 64.3906C95.8562 68.5413 94.1542 73.5097 91.4282 78.9639C88.2033 85.4164 83.5261 92.5847 77.6685 99.9395C82.2892 105.759 86.1726 111.461 89.1851 116.784C89.9957 118.21 90.7442 119.609 91.4272 120.976C94.1532 126.43 95.8563 131.398 96.3452 135.549C96.8332 139.692 96.1183 143.111 93.8892 145.338C91.6602 147.565 88.2398 148.279 84.0933 147.791C79.9394 147.303 74.967 145.602 69.5083 142.878C63.0385 139.65 55.8484 134.966 48.4731 129.098C41.1123 134.945 33.9381 139.613 27.481 142.831C22.0211 145.552 17.0482 147.251 12.894 147.738C8.74703 148.224 5.32629 147.509 3.09814 145.281C0.869882 143.053 0.157129 139.634 0.646973 135.49C1.13771 131.34 2.84262 126.373 5.5708 120.92C8.7975 114.471 13.4742 107.305 19.3325 99.9551C13.5069 92.6304 8.85444 85.4918 5.64209 79.0645C2.91616 73.6103 1.21402 68.6418 0.725098 64.4912C0.41914 61.8934 0.585103 59.5808 1.30127 57.668C1.72845 56.463 2.36633 55.4115 3.23584 54.542Z" stroke="white"/>
<path d="M102.515 54.542C104.743 52.3137 108.161 51.601 112.305 52.0908C116.455 52.5815 121.423 54.2863 126.876 57.0146C133.324 60.2408 140.488 64.9166 147.836 70.7734C155.182 64.9367 162.342 60.2775 168.787 57.0615C174.246 54.3377 179.218 52.636 183.372 52.1475C187.519 51.6598 190.94 52.3734 193.169 54.6006C195.398 56.8279 196.112 60.2469 195.624 64.3906C195.135 68.5413 193.433 73.5097 190.707 78.9639C187.482 85.4164 182.805 92.5847 176.948 99.9395C181.568 105.759 185.452 111.461 188.464 116.784C189.275 118.21 190.023 119.609 190.706 120.976C193.432 126.43 195.135 131.398 195.624 135.549C196.112 139.692 195.397 143.111 193.168 145.338C190.939 147.565 187.519 148.279 183.372 147.791C179.218 147.303 174.246 145.602 168.787 142.878C162.318 139.65 155.127 134.966 147.752 129.098C140.391 134.945 133.217 139.613 126.76 142.831C121.3 145.552 116.327 147.251 112.173 147.738C108.026 148.224 104.605 147.509 102.377 145.281C100.149 143.053 99.4362 139.634 99.926 135.49C100.417 131.34 102.122 126.373 104.85 120.92C108.077 114.471 112.753 107.305 118.612 99.9551C112.786 92.6304 108.133 85.4918 104.921 79.0645C102.195 73.6103 100.493 68.6418 100.004 64.4912C99.6982 61.8934 99.8642 59.5808 100.58 57.668C101.008 56.463 101.645 55.4115 102.515 54.542Z" stroke="white"/>
<path d="M201.98 54.542C204.209 52.3137 207.627 51.601 211.771 52.0908C215.921 52.5815 220.889 54.2863 226.342 57.0146C232.79 60.2408 239.953 64.9166 247.302 70.7734C254.647 64.9367 261.808 60.2775 268.253 57.0615C273.712 54.3377 278.684 52.636 282.838 52.1475C286.985 51.6598 290.406 52.3734 292.635 54.6006C294.864 56.8279 295.578 60.2469 295.09 64.3906C294.601 68.5413 292.899 73.5097 290.173 78.9639C286.948 85.4164 282.271 92.5847 276.413 99.9395C281.034 105.759 284.917 111.461 287.93 116.784C288.74 118.21 289.489 119.609 290.172 120.976C292.898 126.43 294.601 131.398 295.09 135.549C295.578 139.692 294.863 143.111 292.634 145.338C290.405 147.565 286.984 148.279 282.838 147.791C278.684 147.303 273.712 145.602 268.253 142.878C261.783 139.65 254.593 134.966 247.218 129.098C239.857 134.945 232.683 139.613 226.226 142.831C220.766 145.552 215.793 147.251 211.639 147.738C207.492 148.224 204.071 147.509 201.843 145.281C199.615 143.053 198.902 139.634 199.392 135.49C199.882 131.34 201.587 126.373 204.315 120.92C207.542 114.471 212.219 107.305 218.077 99.9551C212.252 92.6304 207.599 85.4918 204.387 79.0645C201.661 73.6103 199.959 68.6418 199.47 64.4912C199.164 61.8934 199.33 59.5808 200.046 57.668C200.473 56.463 201.111 55.4115 201.98 54.542Z" stroke="white"/>
<ellipse cx="5.62382" cy="7.49849" rx="5.62382" ry="7.49849" transform="matrix(-1 0 0 1 40.7969 16.8691)" fill="white"/>
<path d="M23.925 0.5C36.0536 0.5 45.9201 10.7478 45.9202 23.4326C45.9202 36.1175 36.0537 46.3652 23.925 46.3652C11.7965 46.3651 1.92993 36.1174 1.92993 23.4326C1.93002 10.7479 11.7966 0.500096 23.925 0.5Z" stroke="white"/>
<ellipse cx="170.27" cy="24.3676" rx="5.62382" ry="7.49849" fill="white"/>
<path d="M170.27 0.5C158.142 0.5 148.275 10.7478 148.275 23.4326C148.275 36.1175 158.142 46.3652 170.27 46.3652C182.399 46.3651 192.265 36.1174 192.265 23.4326C192.265 10.7479 182.399 0.500096 170.27 0.5Z" stroke="white"/>
<ellipse cx="258.376" cy="24.3676" rx="5.62382" ry="7.49849" fill="white"/>
<path d="M269.624 0.5C257.496 0.5 247.629 10.7478 247.629 23.4326C247.629 36.1175 257.496 46.3652 269.624 46.3652C281.753 46.3651 291.619 36.1174 291.619 23.4326C291.619 10.7479 281.753 0.500096 269.624 0.5Z" stroke="white"/>
<ellipse cx="5.62382" cy="7.49849" rx="5.62382" ry="7.49849" transform="matrix(-1 0 0 1 85.7871 16.8691)" fill="white"/>
<path d="M68.9155 0.5C81.0441 0.5 90.9106 10.7478 90.9106 23.4326C90.9106 36.1175 81.0441 46.3652 68.9155 46.3652C56.787 46.3651 46.9204 36.1174 46.9204 23.4326C46.9205 10.7479 56.787 0.500096 68.9155 0.5Z" stroke="white"/>
<ellipse cx="125.279" cy="24.3676" rx="5.62382" ry="7.49849" fill="white"/>
<path d="M125.28 0.5C113.151 0.5 103.285 10.7478 103.284 23.4326C103.284 36.1175 113.151 46.3652 125.28 46.3652C137.408 46.3651 147.275 36.1174 147.275 23.4326C147.275 10.7479 137.408 0.500096 125.28 0.5Z" stroke="white"/>
<ellipse cx="213.386" cy="24.3676" rx="5.62382" ry="7.49849" fill="white"/>
<path d="M224.634 0.5C212.505 0.5 202.639 10.7478 202.638 23.4326C202.638 36.1175 212.505 46.3652 224.634 46.3652C236.762 46.3651 246.629 36.1174 246.629 23.4326C246.629 10.7479 236.762 0.500096 224.634 0.5Z" stroke="white"/>
</svg>
