<svg width="296" height="239" viewBox="0 0 296 239" fill="none" xmlns="http://www.w3.org/2000/svg">
<path d="M14.5557 142.983C16.3629 141.178 19.126 140.61 22.4443 141C25.7698 141.391 29.7431 142.752 34.0977 144.925C41.9051 148.82 51.0218 155.37 59.9746 163.824C62.5639 162.817 64.9574 162.167 67.0859 161.915C70.4017 161.523 73.1631 162.091 74.9697 163.897C75.6735 164.601 76.1885 165.451 76.5332 166.421C77.1113 167.965 77.2439 169.825 76.999 171.904C76.7195 174.277 75.9432 176.979 74.7314 179.915C79.1111 185.498 82.6236 190.931 85.082 195.845C87.2584 200.195 88.6228 204.164 89.0156 207.486C89.4076 210.802 88.8398 213.563 87.0332 215.37C85.2267 217.177 82.4641 217.746 79.1455 217.357C75.8198 216.968 71.8458 215.608 67.4902 213.438C64.0531 211.724 60.3632 209.496 56.5439 206.818C54.8265 208.722 53.0206 210.625 51.1318 212.512C41.204 222.431 30.8587 230.085 22.1445 234.433C17.7899 236.605 13.8168 237.966 10.4912 238.357C7.17277 238.748 4.40984 238.18 2.60254 236.374C0.795137 234.568 0.226613 231.807 0.617188 228.491C1.0086 225.168 2.37042 221.199 4.54492 216.848C5.23228 215.472 6.00227 214.056 6.85059 212.607C11.3661 204.863 18.1202 196.183 26.4893 187.8C27.9815 186.305 29.4831 184.861 30.9873 183.473C24.6543 176.147 19.6872 168.892 16.498 162.511C14.3234 158.16 12.9617 154.189 12.5703 150.866C12.1798 147.55 12.7483 144.789 14.5557 142.983ZM176.186 78.293C179.501 77.901 182.263 78.4678 184.069 80.2744C184.768 80.9732 185.28 81.8156 185.625 82.7773C186.21 84.3255 186.345 86.1938 186.099 88.2822C185.707 91.6051 184.345 95.5749 182.171 99.9258C177.819 108.633 170.159 118.97 160.231 128.89C160.072 129.049 159.911 129.205 159.752 129.363C163.523 134.345 166.581 139.174 168.788 143.585C170.965 147.935 172.328 151.905 172.721 155.228C173.113 158.543 172.546 161.305 170.739 163.111C168.933 164.918 166.169 165.487 162.851 165.098C159.525 164.708 155.552 163.349 151.196 161.178C145.802 158.489 139.784 154.534 133.625 149.561C132.819 150.003 132.025 150.421 131.244 150.811C126.89 152.983 122.916 154.343 119.591 154.734C116.272 155.125 113.509 154.557 111.702 152.751C109.895 150.945 109.326 148.184 109.717 144.868C110.108 141.545 111.47 137.575 113.645 133.225C113.975 132.563 114.325 131.893 114.693 131.214C108.36 123.888 103.393 116.632 100.204 110.251C98.0295 105.9 96.6678 101.929 96.2764 98.6064C95.8858 95.2906 96.4544 92.5295 98.2617 90.7236C100.069 88.918 102.832 88.35 106.15 88.7402C109.476 89.1313 113.449 90.4922 117.804 92.665C123.214 95.3645 129.252 99.3382 135.43 104.337C135.483 104.284 135.536 104.23 135.589 104.177C145.504 94.2449 155.838 86.5809 164.543 82.2256C168.893 80.0491 172.863 78.6858 176.186 78.293ZM277.674 0.618164C280.99 0.226181 283.751 0.793066 285.558 2.59961C286.26 3.30214 286.774 4.14998 287.119 5.11816C287.699 6.66333 287.832 8.52594 287.587 10.6074C287.195 13.9303 285.834 17.9 283.659 22.251C280.381 28.8108 275.224 36.2954 268.635 43.8301C268.834 44.0273 269.035 44.2248 269.234 44.4238C279.166 54.3391 286.83 64.6728 291.186 73.3779C293.362 77.728 294.725 81.6977 295.118 85.0205C295.51 88.3362 294.943 91.0977 293.137 92.9043C291.33 94.7108 288.567 95.2795 285.248 94.8906C281.922 94.5009 277.949 93.1416 273.594 90.9707C267.317 87.8421 260.193 82.9996 252.988 76.8311C252.863 76.7236 252.738 76.6151 252.612 76.5068C251.808 75.8133 251.002 75.1038 250.197 74.3779C249.59 73.8302 248.982 73.2737 248.375 72.708C248.346 72.681 248.317 72.654 248.288 72.627C248.031 72.3869 247.774 72.1446 247.518 71.9014C247.447 71.8348 247.377 71.768 247.307 71.7012C246.383 70.823 245.46 69.9256 244.541 69.0078C244.301 68.7675 244.062 68.5259 243.824 68.2852C243.722 68.1814 243.62 68.0775 243.518 67.9736C243.254 67.7051 242.991 67.437 242.73 67.168C239.249 69.5563 235.884 71.5631 232.732 73.1357C228.378 75.3085 224.405 76.6685 221.079 77.0596C217.761 77.4498 214.998 76.8828 213.19 75.0771C211.383 73.2712 210.814 70.5094 211.205 67.1934C211.597 63.8705 212.958 59.9007 215.133 55.5498C215.819 54.176 216.588 52.7614 217.436 51.3145C219.177 48.327 221.253 45.2011 223.625 42.0059C223.266 41.3432 222.924 40.6895 222.602 40.0439C220.427 35.6931 219.065 31.7233 218.674 28.4004C218.283 25.0844 218.852 22.3225 220.659 20.5166C222.466 18.711 225.23 18.143 228.548 18.5332C231.873 18.9243 235.847 20.2852 240.201 22.458C240.431 22.5727 240.662 22.6903 240.894 22.8096C249.606 14.6666 258.438 8.34981 266.031 4.55078C270.381 2.37434 274.351 1.01099 277.674 0.618164Z" stroke="white"/>
</svg>
