<svg width="337" height="337" viewBox="0 0 337 337" fill="none" xmlns="http://www.w3.org/2000/svg">
<path d="M34.9414 0.5C45.5201 0.48626 58.1147 3.2644 72.1338 8.5166C100.091 18.9908 133.815 39.3429 168.707 67.25C203.622 39.4072 237.362 19.1086 265.329 8.66895C279.353 3.43404 291.951 0.668586 302.532 0.689453C313.115 0.710367 321.724 3.52087 327.694 9.48633C333.669 15.4561 336.482 24.0657 336.499 34.6504C336.516 45.2325 333.739 57.8324 328.489 71.8584C318.019 99.8295 297.669 133.572 269.763 168.485C285.733 188.526 299.218 208.176 309.783 226.568H309.784C323.021 249.509 331.722 270.522 335.016 287.914C338.306 305.288 336.217 319.173 327.691 327.691C321.713 333.665 313.089 336.474 302.486 336.487C291.886 336.5 279.264 333.72 265.213 328.465C237.192 317.984 203.39 297.621 168.421 269.699C133.472 297.56 99.6987 317.872 71.7051 328.317C57.6679 333.555 45.0585 336.321 34.4697 336.299C23.8788 336.277 15.2652 333.463 9.29395 327.492H9.29297C3.32177 321.521 0.513167 312.911 0.5 302.328C0.486851 291.748 3.26666 279.151 8.52051 265.13C18.9981 237.168 39.3548 203.438 67.2686 168.541C42.6435 137.691 23.9275 107.768 12.7227 81.9463C7.10132 68.9919 3.36448 57.0573 1.72461 46.5479C0.0854457 36.0427 0.536204 26.9287 3.32617 19.6387C4.77883 15.6289 6.91898 12.1562 9.78125 9.29395C15.752 3.32324 24.3602 0.513806 34.9414 0.5Z" stroke="white"/>
</svg>
